<svg width="118" height="24" viewBox="0 0 118 24" fill="none" xmlns="http://www.w3.org/2000/svg">
<path d="M1.59801 19V4.45455H3.79261V17.1108H10.3835V19H1.59801ZM17.4183 19.2202C16.3435 19.2202 15.4179 18.9905 14.6413 18.5312C13.8696 18.0672 13.273 17.4162 12.8516 16.5781C12.4349 15.7353 12.2266 14.7481 12.2266 13.6165C12.2266 12.4991 12.4349 11.5142 12.8516 10.6619C13.273 9.80966 13.8601 9.14441 14.6129 8.66619C15.3705 8.18797 16.2559 7.94886 17.2692 7.94886C17.8847 7.94886 18.4813 8.05066 19.0589 8.25426C19.6366 8.45786 20.1551 8.77746 20.6143 9.21307C21.0736 9.64867 21.4358 10.2145 21.701 10.9105C21.9661 11.6018 22.0987 12.4422 22.0987 13.4318V14.1847H13.4268V12.5938H20.0178C20.0178 12.035 19.9041 11.5402 19.6768 11.1094C19.4496 10.6738 19.13 10.3305 18.718 10.0795C18.3108 9.8286 17.8326 9.70312 17.2834 9.70312C16.6868 9.70312 16.166 9.84991 15.7209 10.1435C15.2805 10.4323 14.9396 10.8111 14.6982 11.2798C14.4614 11.7438 14.343 12.2481 14.343 12.7926V14.0355C14.343 14.7647 14.4709 15.3849 14.7266 15.8963C14.987 16.4077 15.3492 16.7983 15.8132 17.0682C16.2772 17.3333 16.8194 17.4659 17.4396 17.4659C17.8421 17.4659 18.209 17.4091 18.5405 17.2955C18.8719 17.1771 19.1584 17.0019 19.3999 16.7699C19.6413 16.5379 19.826 16.2514 19.9538 15.9105L21.9638 16.2727C21.8028 16.8646 21.514 17.383 21.0973 17.8281C20.6854 18.2685 20.1669 18.6117 19.5419 18.858C18.9216 19.0994 18.2138 19.2202 17.4183 19.2202ZM27.6296 19.2415C26.9383 19.2415 26.3133 19.1136 25.7546 18.858C25.1959 18.5975 24.7532 18.2211 24.4265 17.7287C24.1045 17.2363 23.9435 16.6326 23.9435 15.9176C23.9435 15.3021 24.0619 14.7955 24.2987 14.3977C24.5354 14 24.855 13.6851 25.2575 13.4531C25.6599 13.2211 26.1097 13.0459 26.6069 12.9276C27.104 12.8092 27.6107 12.7192 28.1268 12.6577C28.7802 12.5819 29.3105 12.5204 29.7177 12.473C30.1249 12.4209 30.4208 12.3381 30.6055 12.2244C30.7901 12.1108 30.8825 11.9261 30.8825 11.6705V11.6207C30.8825 11.0005 30.7073 10.5199 30.3569 10.179C30.0112 9.83807 29.4951 9.66761 28.8086 9.66761C28.0936 9.66761 27.5302 9.82623 27.1183 10.1435C26.7111 10.456 26.4293 10.804 26.2731 11.1875L24.2773 10.733C24.5141 10.0701 24.8597 9.53504 25.3143 9.12784C25.7736 8.71591 26.3015 8.41761 26.8981 8.23295C27.4947 8.04356 28.122 7.94886 28.7802 7.94886C29.2158 7.94886 29.6774 8.00095 30.1651 8.10511C30.6576 8.20455 31.1168 8.3892 31.543 8.65909C31.9738 8.92898 32.3266 9.31487 32.6012 9.81676C32.8758 10.3139 33.0131 10.9602 33.0131 11.7557V19H30.9393V17.5085H30.854C30.7167 17.7831 30.5108 18.053 30.2362 18.3182C29.9615 18.5833 29.6088 18.8035 29.1779 18.9787C28.747 19.1539 28.2309 19.2415 27.6296 19.2415ZM28.0913 17.5369C28.6784 17.5369 29.1803 17.4209 29.5969 17.1889C30.0183 16.9569 30.338 16.6539 30.5558 16.2798C30.7783 15.901 30.8896 15.4962 30.8896 15.0653V13.6591C30.8138 13.7348 30.667 13.8059 30.4492 13.8722C30.2362 13.9337 29.9923 13.9882 29.7177 14.0355C29.4431 14.0781 29.1755 14.1184 28.9151 14.1562C28.6547 14.1894 28.4369 14.2178 28.2617 14.2415C27.8498 14.2936 27.4734 14.3812 27.1325 14.5043C26.7963 14.6274 26.5264 14.8049 26.3228 15.0369C26.1239 15.2642 26.0245 15.5672 26.0245 15.946C26.0245 16.4716 26.2186 16.8693 26.6069 17.1392C26.9951 17.4044 27.4899 17.5369 28.0913 17.5369ZM35.8416 19V8.09091H37.8942V9.82386H38.0078C38.2067 9.23674 38.5571 8.77509 39.0589 8.43892C39.5656 8.09801 40.1385 7.92756 40.7777 7.92756C40.9103 7.92756 41.0665 7.93229 41.2464 7.94176C41.4311 7.95123 41.5755 7.96307 41.6797 7.97727V10.0085C41.5945 9.98485 41.4429 9.95881 41.2251 9.9304C41.0073 9.89725 40.7895 9.88068 40.5717 9.88068C40.0698 9.88068 39.6224 9.98722 39.2294 10.2003C38.8411 10.4086 38.5334 10.6998 38.3061 11.0739C38.0788 11.4432 37.9652 11.8646 37.9652 12.3381V19H35.8416ZM45.641 12.5227V19H43.5174V8.09091H45.5558V9.86648H45.6907C45.9416 9.28883 46.3346 8.82481 46.8697 8.47443C47.4094 8.12405 48.0889 7.94886 48.908 7.94886C49.6514 7.94886 50.3024 8.10511 50.8612 8.41761C51.4199 8.72538 51.8531 9.18466 52.1609 9.79545C52.4686 10.4062 52.6225 11.1615 52.6225 12.0611V19H50.4989V12.3168C50.4989 11.526 50.293 10.9081 49.881 10.4631C49.4691 10.0133 48.9033 9.78835 48.1836 9.78835C47.6912 9.78835 47.2532 9.89489 46.8697 10.108C46.4909 10.321 46.1902 10.6335 45.9677 11.0455C45.7499 11.4527 45.641 11.9451 45.641 12.5227Z" fill="#262626"/>
<path d="M61.2642 19V4.45455H64.3395V10.456H70.5824V4.45455H73.6506V19H70.5824V12.9915H64.3395V19H61.2642ZM75.6321 6.99006V4.45455H87.5781V6.99006H83.125V19H80.0852V6.99006H75.6321ZM89.5455 4.45455H93.3381L97.3438 14.2273H97.5142L101.52 4.45455H105.312V19H102.33V9.53267H102.209L98.4446 18.929H96.4134L92.6491 9.49716H92.5284V19H89.5455V4.45455ZM107.846 19V4.45455H110.922V16.4645H117.157V19H107.846Z" fill="url(#paint0_linear_15_146)"/>
<defs>
<linearGradient id="paint0_linear_15_146" x1="62" y1="12" x2="118" y2="12" gradientUnits="userSpaceOnUse">
<stop stop-color="#FF339A"/>
<stop offset="0.541188" stop-color="#AC34EE"/>
<stop offset="1" stop-color="#0065FE"/>
</linearGradient>
</defs>
</svg>
